<?xml version="1.0" encoding="UTF-8"?>
<!DOCTYPE svg PUBLIC "-//W3C//DTD SVG 1.1//EN" "http://www.w3.org/Graphics/SVG/1.1/DTD/svg11.dtd">
<!-- Creator: CorelDRAW 2018 (64-Bit) -->
<svg xmlns="http://www.w3.org/2000/svg" xml:space="preserve" width="324.552mm" height="152.457mm" version="1.1" style="shape-rendering:geometricPrecision; text-rendering:geometricPrecision; image-rendering:optimizeQuality; fill-rule:evenodd; clip-rule:evenodd"
     viewBox="0 0 40662.97 19101.2"
     xmlns:xlink="http://www.w3.org/1999/xlink">
 <defs>
  <style type="text/css">
   <![CDATA[
    .fil0 {fill:white}
    .fil1 {fill:white;fill-rule:nonzero}
   ]]>
  </style>
 </defs>
 <g id="Слой_x0020_1">
  <metadata id="CorelCorpID_0Corel-Layer"/>
  <g id="_2415114992960">
   <path class="fil0" d="M27520.97 930c-59.66,-67.13 -170.18,-82.06 -1520.24,-200.01 -1350.04,-117.96 -3939.62,-338.95 -5254.3,-447.22 -1314.68,-108.29 -1354.45,-103.87 -1387.61,-64.09 -33.15,39.78 -59.66,114.92 -127.85,652.92 -68.18,538.01 -178.01,1538.87 -221.89,2052.57 -43.86,513.7 -21.76,540.21 275.72,564.63 297.5,24.42 870.39,46.72 1214.26,62.59 343.87,15.87 458.71,25.31 512.57,56.25 53.87,30.95 46.77,83.41 37.41,148.04 -9.36,64.62 -20.96,141.41 -59.94,439.5 -38.97,298.08 -105.31,817.43 -158.38,2001.25 -79.6,1850.28 -42.15,3621.21 137.52,5465.18 11.25,115.4 8.12,322.48 162.5,305.16 141.29,-15.85 664.42,-249.7 843.99,-320.01 680.91,-260.94 1386.88,-535.39 2078.8,-761.56 125.64,-41.07 453.95,-109.57 521.05,-208.68 65.03,-96.06 -2.73,-387.08 -15.95,-511.24 -17.13,-161.1 -29.89,-325.06 -42.46,-486.66 -101.41,-1316.91 -143.08,-3069.91 -137.41,-4114.36 5.68,-1044.45 58.72,-1380.36 107.34,-1552.74 48.62,-172.39 92.83,-181.22 411.53,-178.63 318.71,2.58 911.92,16.61 1260.46,39.1 348.54,22.48 452.41,53.42 531.47,11.44 79.07,-41.98 133.31,-156.91 280.62,-610.34 147.32,-453.42 387.71,-1245.35 503.49,-1700.98 115.78,-455.64 106.96,-574.99 47.28,-642.12zm-5253.89 17001.09c101.92,213.18 188.11,251.86 908.55,234.73 720.45,-17.14 2075.16,-90.07 2782.09,-196.72 706.93,-106.65 766.1,-247 724.95,-449.76 -41.13,-202.78 -182.57,-467.97 -489.76,-1272.08 -254.21,-666.42 -497.76,-1338.76 -705.87,-2021 -90.1,-295.37 -140.5,-292.7 -412.57,-174.82 -471.61,204.33 -1022.14,379.75 -1513.22,541.38 -575.71,189.2 -1135.01,366.21 -1718.66,530.86 -292.71,82.58 -268.04,155.7 -202.07,439.75 156.02,671.64 304.77,1398.21 505.86,2046.22 34.3,109.68 71.62,217.4 120.69,321.43z"/>
   <path class="fil0" d="M42.96 975.12c59.66,-67.14 170.18,-82.08 1520.23,-200.01 1350.06,-117.97 3939.63,-338.95 5254.32,-447.23 1314.68,-108.29 1354.45,-103.87 1387.61,-64.09 33.14,39.78 59.66,114.93 127.85,652.92 68.17,538.01 178.01,1538.87 221.88,2052.58 43.86,513.69 21.78,540.21 -275.72,564.62 -297.49,24.42 -870.37,46.72 -1214.26,62.59 -343.86,15.87 -458.71,25.31 -512.57,56.25 -53.86,30.95 -46.76,83.42 -37.41,148.04 9.37,64.62 20.96,141.41 59.95,439.52 38.97,298.06 105.31,817.41 158.38,2001.24 9.71,218.24 16.76,427.1 33.33,645.63 47.96,633.05 -217.43,469 -678.62,390.9 -717.76,-121.53 -1444.6,-232.84 -2164.09,-348.43 -141.3,-22.69 -270.39,-39.27 -411.55,-57.91 -396.5,-52.4 -346.51,-268.73 -331.25,-604.25 9.25,-203.27 5.27,-426.27 4.26,-631.18l-0.14 -26.94c-5.66,-1044.46 -58.71,-1380.38 -107.34,-1552.75 -48.62,-172.37 -92.81,-181.22 -411.53,-178.63 -318.7,2.58 -911.91,16.63 -1260.45,39.12 -348.54,22.48 -452.41,53.41 -531.47,11.44 -79.07,-42 -133.31,-156.93 -280.62,-610.35 -147.32,-453.42 -387.71,-1245.35 -503.49,-1700.98 -115.78,-455.64 -106.96,-574.99 -47.28,-642.11zm6597.67 10200.31c-185.4,1901.76 -595.99,3857 -860.13,5028.47 -264.12,1171.44 -381.74,1559.13 -483.66,1772.3 -101.94,213.19 -188.11,251.86 -908.56,234.73 -720.45,-17.14 -2075.16,-90.07 -2782.08,-196.7 -706.95,-106.66 -766.11,-247 -724.96,-449.78 41.15,-202.78 182.58,-467.97 489.77,-1272.08 307.18,-804.1 780.1,-2147.11 1097.14,-3259.02 245.74,-864.67 424.54,-1693.94 506.4,-2590.81 10.29,-112.79 7.47,-313.44 145.91,-331.77 82.11,-10.88 388.71,28.23 497.85,33.75 791.35,39.47 1627.17,49.2 2419.5,32.91 148.51,-3.06 496.42,-54.89 605.69,32.26 125.53,100.13 49.74,438.29 33.3,583.94 -14.27,126.42 -23.89,254.9 -36.17,381.79z"/>
   <path class="fil0" d="M10095.73 156.19c563.54,-36.66 1633.17,-109.97 2218.81,-140 585.64,-30.03 687.29,-16.76 735.91,27.41 48.61,44.16 44.2,119.26 79.56,1451.88 44.99,1694.08 89.73,3385.3 117.78,5079.94 4.86,293.54 88.49,503.41 -268.43,583.27 -242.06,54.18 -325.01,-43.95 -319.19,-293.27l1.13 -47.94c9,-185.33 64.56,-461.73 59.88,-709.39 -4.69,-247.68 -69.61,-466.62 -155.55,-619.82 -85.92,-153.2 -192.86,-240.67 -265.76,-131.5 -72.89,109.16 -111.75,414.97 -198.12,701.71 -86.36,286.71 -220.22,554.34 -301.03,769.82 -80.82,215.46 -108.56,378.75 -186.39,517.91 -77.84,139.15 -205.76,254.15 -392.56,341.26 -370.21,169.17 -927.19,111.61 -1326.05,97.26 -441.68,-15.9 -369.23,-192.95 -358.43,-561.38 18.78,-640.61 18.84,-1300.73 22.16,-1942.78 1.2,-233.3 1.75,-466.59 1.47,-699.89 -2.22,-1584.55 -46.41,-2645.33 -77.34,-3289.34 -30.95,-644.01 -48.64,-871.26 -28.74,-984.88 19.88,-113.63 77.35,-113.63 640.89,-150.28zm2725.55 13399.38c52.72,178.2 38.3,277.49 -11.31,336.14 -49.61,58.64 -134.4,76.61 -572.16,34.82 -437.76,-41.81 -1228.48,-143.42 -1679.97,-172.29 -451.49,-28.87 -563.75,15.01 -619.98,88.33 -56.24,73.31 -56.46,176.08 -50.96,256.74 5.5,80.65 16.73,139.2 360.57,203.51 343.84,64.3 1020.32,134.35 1404.33,187.4 384,53.05 475.55,89.09 517.46,141.74 41.91,52.65 34.19,121.92 24.81,199.27 -9.38,77.34 -20.45,162.79 -429.58,209.53 -409.15,46.75 -1216.39,54.81 -1639.91,99.79 -423.53,44.97 -463.36,126.86 -486.85,227.96 -23.5,101.11 -30.66,221.42 249.21,263.73 279.86,42.3 846.74,6.58 1279.37,3.08 432.62,-3.5 730.96,25.25 890.65,107.57 159.67,82.33 180.68,218.27 -35.34,316.07 -216.04,97.79 -669.08,157.46 -1071.39,202.67 -402.3,45.2 -753.84,75.95 -930.73,139.4 -176.88,63.43 -179.11,159.57 -145.41,245.2 33.7,85.64 103.34,160.78 501.77,156.46 398.43,-4.32 1125.68,-88.12 1534.57,-128.91 408.88,-40.81 499.43,-38.63 566.28,0.6 66.85,39.23 110.04,115.5 -88.25,272.98 -198.31,157.48 -638.1,396.15 -915.18,555.27 -277.08,159.12 -391.47,238.68 -424.59,336.55 -33.13,97.86 14.98,214.03 226.67,187.7 211.69,-26.34 586.96,-195.2 1023.62,-415.32 436.65,-220.12 934.71,-491.52 1294.05,-706.61 359.33,-215.08 579.95,-373.86 707.62,-514 127.66,-140.15 162.38,-261.64 527.52,-321.34 365.13,-59.7 1060.69,-57.6 1845.51,-89.17 435.16,-17.75 858.28,-39.85 1291.53,-87.44 299.39,-32.88 317.83,50.79 244.7,331.44 -268.08,1028.95 -899.15,1806.62 -1826.57,2319.97 -443.5,245.48 -914.33,404.02 -1414.72,482.84 -644.33,98.57 -1660.59,98.57 -2304.91,0 -1388.87,-212.52 -2691.76,-1131.48 -3149.21,-2495.07 -114.92,-342.54 -172.37,-713.82 -190.05,-1195.59 -17.68,-481.78 4.42,-1074.06 37.57,-1918.26 12.23,-311.33 87.53,-3322.64 134.45,-3403.52 65.95,-113.68 335.93,-109.25 460.56,-125.31 438.63,-56.56 910.45,-174.83 1350.16,-197.43 368.89,-16.7 431.41,95.12 588.64,206.06 279.48,192.26 703.89,325.84 1027.46,421.4 381.92,112.8 338.26,296.71 320.77,647.2 -26.1,549.31 -9.1,1103.32 -15.8,1652.54 -2.36,193 -31.44,114.99 -97.41,-17.21 -59.73,-119.65 -228.3,-531.68 -350.35,-567.16 -168.78,-49.08 -219.59,390.62 -221.54,498.84 -7.25,405.95 150.05,656.98 262.32,1021.8zm1548.34 -3657.95c-4.45,-196.98 44.92,-173.75 239.32,-162.2 356.64,21.21 752.74,30.52 1108.74,7.04 370.37,-27.99 420.22,-115.89 432.67,-206.68 12.45,-90.8 -12.48,-184.45 -240.05,-236.8 -463.9,-92.45 -921.63,-54.69 -1367.38,-128.97 -201.54,-33.59 -187.72,-111.55 -185.49,-293.7 2.99,-261.07 34.45,-293.45 278.41,-340.56 381.68,-72.52 812.92,-137.03 1184.29,-232.74 63.41,-16.34 122.48,-33.72 184.01,-56.14 261.88,-99.03 226.42,-215.36 179.63,-309.52 -46.77,-94.16 -104.87,-166.15 -526.99,-123 -393.57,43.01 -771.14,121.68 -1159.96,185.02 -166.64,27.14 -138.76,-23 -137.81,-193.75 0.58,-101.95 -20.99,-370.13 59.93,-438.33 72.38,-60.99 271.68,-112.23 368.35,-143.27 183.04,-62.46 373,-130.54 551.61,-204.62 318.81,-133.73 315.84,-193.37 302.09,-273.47 -13.77,-80.11 -38.33,-180.69 -110.33,-240.89 -181.59,-140.44 -728.68,78.59 -938.64,143.41 -239.75,74.01 -219.02,-78.02 -209.48,-275.9 22.74,-472.58 22.29,-965.49 32.63,-1440.73 24.93,-1145.63 56.77,-2290.86 87.19,-3436.33 35.36,-1332.62 30.95,-1407.72 79.56,-1451.88 48.62,-44.18 150.27,-57.45 735.91,-27.41 585.64,30.03 1655.28,103.34 2218.81,140 563.54,36.66 621.01,36.66 640.89,150.28 19.9,113.61 2.21,340.86 -28.74,984.88 -30.93,644.01 -75.12,1704.79 -77.34,3289.34 -2.21,1584.55 37.57,3692.87 79.56,5295.1 25.82,980.1 47.23,1978 105.48,2955.74 27.36,459.36 -2115.59,981.17 -2650.29,1129.56 -292.54,79.8 -840.47,223.08 -1132.73,155.33 -123.36,-28.6 -87.75,-161.59 -83.13,-269.69 54.58,-1276.55 8.08,-2674.94 -20.7,-3949.13z"/>
   <g>
    <path class="fil0" d="M28398.88 10855.19c768.94,0 1392.28,-623.34 1392.28,-1392.28 0,-768.94 -623.34,-1392.28 -1392.28,-1392.28 -768.94,0 -1392.28,623.34 -1392.28,1392.28 0,768.94 623.34,1392.28 1392.28,1392.28z"/>
    <path class="fil1" d="M32129.36 7655.28c-300.02,170.28 -681.29,65.1 -851.57,-234.92 -170.28,-300.02 -65.1,-681.29 234.92,-851.57 427.85,-242.1 920.68,-355.2 1395.29,-355.2 406.74,0 810.41,83.07 1157.49,239.15 381.59,171.62 699.59,434.72 894.87,779.81 130.76,231.07 204.26,489.54 204.26,771.77l0 3299.19c0,345.97 -280.47,626.45 -626.45,626.45 -329.92,0 -600.29,-255.08 -624.66,-578.76 -220.36,354.98 -627.86,578.76 -1359.53,578.76 -1357.7,0 -1838.31,-770.25 -1838.31,-1720.39 0,-950.13 609.88,-1720.4 1838.31,-1720.4 702.96,0 1125.11,252.31 1357.74,646.14l0 -1130.99c0,-60.6 -13.62,-112.31 -37.85,-155.12 -57.53,-101.68 -173.09,-189.04 -322.27,-256.13 -183.72,-82.62 -408.22,-126.59 -643.6,-126.59 -275.16,0 -551.25,60.11 -778.64,188.79zm1782.36 2531.07l0 -270.9c-88.12,-297.5 -460.59,-520.9 -906.73,-520.9 -511.69,0 -926.53,293.85 -926.53,656.35 0,362.5 414.83,656.35 926.53,656.35 446.14,0 818.62,-223.4 906.73,-520.9z"/>
    <path class="fil1" d="M36699.53 7562.98c-347.16,0 -628.62,-296.26 -628.62,-661.7 0,-365.44 281.45,-661.7 628.62,-661.7l3334.82 0c347.16,0 628.62,296.26 628.62,661.7 0,181.31 -69.3,345.56 -181.51,465.07l-2624.53 3229.09 2064.73 0c347.16,0 628.62,296.26 628.62,661.7 0,365.44 -281.45,661.7 -628.62,661.7l-3427.66 0 0 -1.77c-144.32,0.06 -289.37,-51.98 -407.62,-158.49 -263.08,-236.96 -293.88,-653.57 -68.76,-930.51l2653.8 -3265.1 -1971.89 0z"/>
   </g>
  </g>
 </g>
</svg>